<mxfile host="app.diagrams.net" modified="2021-12-29T09:54:59.949Z" agent="5.0 (Macintosh; Intel Mac OS X 10_15_7) AppleWebKit/537.36 (KHTML, like Gecko) Chrome/95.0.4638.69 Safari/537.36" etag="Ex8FibUf_3J2RVqivAdx" version="15.3.0" type="github">
  <diagram id="C5RBs43oDa-KdzZeNtuy" name="Page-1">
    <mxGraphModel dx="2066" dy="1097" grid="1" gridSize="10" guides="1" tooltips="1" connect="1" arrows="1" fold="1" page="1" pageScale="1" pageWidth="827" pageHeight="1169" math="0" shadow="0">
      <root>
        <mxCell id="WIyWlLk6GJQsqaUBKTNV-0" />
        <mxCell id="WIyWlLk6GJQsqaUBKTNV-1" parent="WIyWlLk6GJQsqaUBKTNV-0" />
        <mxCell id="_P4ZbYmgP_hX-oHSwhvf-42" style="edgeStyle=none;rounded=0;orthogonalLoop=1;jettySize=auto;html=1;exitX=0.5;exitY=1;exitDx=0;exitDy=0;entryX=0.713;entryY=0.013;entryDx=0;entryDy=0;entryPerimeter=0;startArrow=none;startFill=0;endArrow=classic;endFill=1;" edge="1" parent="WIyWlLk6GJQsqaUBKTNV-1" source="_P4ZbYmgP_hX-oHSwhvf-14" target="_P4ZbYmgP_hX-oHSwhvf-35">
          <mxGeometry relative="1" as="geometry" />
        </mxCell>
        <mxCell id="_P4ZbYmgP_hX-oHSwhvf-14" value="" style="rounded=0;whiteSpace=wrap;html=1;dashed=1;" vertex="1" parent="WIyWlLk6GJQsqaUBKTNV-1">
          <mxGeometry x="455" y="150" width="130" height="480" as="geometry" />
        </mxCell>
        <mxCell id="_P4ZbYmgP_hX-oHSwhvf-39" style="edgeStyle=none;rounded=0;orthogonalLoop=1;jettySize=auto;html=1;exitX=0.5;exitY=1;exitDx=0;exitDy=0;entryX=0.5;entryY=0;entryDx=0;entryDy=0;startArrow=none;startFill=0;endArrow=classic;endFill=1;" edge="1" parent="WIyWlLk6GJQsqaUBKTNV-1" source="_P4ZbYmgP_hX-oHSwhvf-13" target="_P4ZbYmgP_hX-oHSwhvf-35">
          <mxGeometry relative="1" as="geometry" />
        </mxCell>
        <mxCell id="_P4ZbYmgP_hX-oHSwhvf-13" value="" style="rounded=0;whiteSpace=wrap;html=1;strokeColor=default;dashed=1;" vertex="1" parent="WIyWlLk6GJQsqaUBKTNV-1">
          <mxGeometry x="315" y="150" width="130" height="480" as="geometry" />
        </mxCell>
        <mxCell id="_P4ZbYmgP_hX-oHSwhvf-37" style="edgeStyle=none;rounded=0;orthogonalLoop=1;jettySize=auto;html=1;exitX=0.5;exitY=1;exitDx=0;exitDy=0;startArrow=none;startFill=0;endArrow=classic;endFill=1;" edge="1" parent="WIyWlLk6GJQsqaUBKTNV-1" source="_P4ZbYmgP_hX-oHSwhvf-12" target="_P4ZbYmgP_hX-oHSwhvf-35">
          <mxGeometry relative="1" as="geometry" />
        </mxCell>
        <mxCell id="_P4ZbYmgP_hX-oHSwhvf-12" value="" style="rounded=0;whiteSpace=wrap;html=1;dashed=1;" vertex="1" parent="WIyWlLk6GJQsqaUBKTNV-1">
          <mxGeometry x="170" y="150" width="130" height="480" as="geometry" />
        </mxCell>
        <mxCell id="_P4ZbYmgP_hX-oHSwhvf-0" value="test_ranking&amp;nbsp; &amp;nbsp;&amp;nbsp;" style="shape=dataStorage;whiteSpace=wrap;html=1;fixedSize=1;" vertex="1" parent="WIyWlLk6GJQsqaUBKTNV-1">
          <mxGeometry x="180" y="180" width="100" height="80" as="geometry" />
        </mxCell>
        <mxCell id="_P4ZbYmgP_hX-oHSwhvf-1" value="&lt;span&gt;test_ranking&amp;nbsp; &amp;nbsp;&amp;nbsp;&lt;/span&gt;" style="shape=dataStorage;whiteSpace=wrap;html=1;fixedSize=1;" vertex="1" parent="WIyWlLk6GJQsqaUBKTNV-1">
          <mxGeometry x="320" y="180" width="100" height="80" as="geometry" />
        </mxCell>
        <mxCell id="_P4ZbYmgP_hX-oHSwhvf-2" value="&lt;span&gt;test_ranking&amp;nbsp; &amp;nbsp;&amp;nbsp;&lt;/span&gt;" style="shape=dataStorage;whiteSpace=wrap;html=1;fixedSize=1;" vertex="1" parent="WIyWlLk6GJQsqaUBKTNV-1">
          <mxGeometry x="470" y="180" width="100" height="80" as="geometry" />
        </mxCell>
        <mxCell id="_P4ZbYmgP_hX-oHSwhvf-21" style="edgeStyle=none;rounded=0;orthogonalLoop=1;jettySize=auto;html=1;exitX=0.5;exitY=1;exitDx=0;exitDy=0;exitPerimeter=0;startArrow=none;startFill=0;endArrow=classic;endFill=1;" edge="1" parent="WIyWlLk6GJQsqaUBKTNV-1" source="_P4ZbYmgP_hX-oHSwhvf-3" target="_P4ZbYmgP_hX-oHSwhvf-15">
          <mxGeometry relative="1" as="geometry" />
        </mxCell>
        <mxCell id="_P4ZbYmgP_hX-oHSwhvf-3" value="name = a" style="shape=cylinder3;whiteSpace=wrap;html=1;boundedLbl=1;backgroundOutline=1;size=15;" vertex="1" parent="WIyWlLk6GJQsqaUBKTNV-1">
          <mxGeometry x="180" y="330" width="100" height="70" as="geometry" />
        </mxCell>
        <mxCell id="_P4ZbYmgP_hX-oHSwhvf-4" value="name = b" style="shape=cylinder3;whiteSpace=wrap;html=1;boundedLbl=1;backgroundOutline=1;size=15;" vertex="1" parent="WIyWlLk6GJQsqaUBKTNV-1">
          <mxGeometry x="330" y="330" width="100" height="70" as="geometry" />
        </mxCell>
        <mxCell id="_P4ZbYmgP_hX-oHSwhvf-5" value="name = c" style="shape=cylinder3;whiteSpace=wrap;html=1;boundedLbl=1;backgroundOutline=1;size=15;" vertex="1" parent="WIyWlLk6GJQsqaUBKTNV-1">
          <mxGeometry x="470" y="330" width="100" height="70" as="geometry" />
        </mxCell>
        <mxCell id="_P4ZbYmgP_hX-oHSwhvf-6" value="" style="endArrow=classic;html=1;strokeWidth=2;exitX=0.44;exitY=1.05;exitDx=0;exitDy=0;exitPerimeter=0;dashed=1;startArrow=none;startFill=0;endFill=1;entryX=0.5;entryY=0;entryDx=0;entryDy=0;entryPerimeter=0;" edge="1" parent="WIyWlLk6GJQsqaUBKTNV-1" source="_P4ZbYmgP_hX-oHSwhvf-1" target="_P4ZbYmgP_hX-oHSwhvf-3">
          <mxGeometry width="50" height="50" relative="1" as="geometry">
            <mxPoint x="390" y="580" as="sourcePoint" />
            <mxPoint x="260" y="330" as="targetPoint" />
          </mxGeometry>
        </mxCell>
        <mxCell id="_P4ZbYmgP_hX-oHSwhvf-7" value="" style="endArrow=classic;html=1;strokeWidth=2;exitX=0.5;exitY=1;exitDx=0;exitDy=0;dashed=1;startArrow=none;startFill=0;endFill=1;entryX=0.855;entryY=0;entryDx=0;entryDy=4.35;entryPerimeter=0;" edge="1" parent="WIyWlLk6GJQsqaUBKTNV-1" source="_P4ZbYmgP_hX-oHSwhvf-2" target="_P4ZbYmgP_hX-oHSwhvf-3">
          <mxGeometry width="50" height="50" relative="1" as="geometry">
            <mxPoint x="374" y="264" as="sourcePoint" />
            <mxPoint x="273.1683168316831" y="340" as="targetPoint" />
          </mxGeometry>
        </mxCell>
        <mxCell id="_P4ZbYmgP_hX-oHSwhvf-8" value="" style="endArrow=classic;html=1;strokeWidth=2;exitX=0.5;exitY=1;exitDx=0;exitDy=0;dashed=1;startArrow=none;startFill=0;endFill=1;" edge="1" parent="WIyWlLk6GJQsqaUBKTNV-1" source="_P4ZbYmgP_hX-oHSwhvf-1">
          <mxGeometry width="50" height="50" relative="1" as="geometry">
            <mxPoint x="384" y="274" as="sourcePoint" />
            <mxPoint x="520" y="330" as="targetPoint" />
          </mxGeometry>
        </mxCell>
        <mxCell id="_P4ZbYmgP_hX-oHSwhvf-9" value="" style="endArrow=classic;html=1;strokeWidth=2;dashed=1;startArrow=none;startFill=0;endFill=1;entryX=0.5;entryY=0;entryDx=0;entryDy=0;entryPerimeter=0;" edge="1" parent="WIyWlLk6GJQsqaUBKTNV-1" target="_P4ZbYmgP_hX-oHSwhvf-4">
          <mxGeometry width="50" height="50" relative="1" as="geometry">
            <mxPoint x="520" y="260" as="sourcePoint" />
            <mxPoint x="293.1683168316831" y="360" as="targetPoint" />
          </mxGeometry>
        </mxCell>
        <mxCell id="_P4ZbYmgP_hX-oHSwhvf-10" value="" style="endArrow=classic;html=1;strokeWidth=2;exitX=0.61;exitY=1.025;exitDx=0;exitDy=0;exitPerimeter=0;dashed=1;startArrow=none;startFill=0;endFill=1;entryX=0.145;entryY=0;entryDx=0;entryDy=4.35;entryPerimeter=0;" edge="1" parent="WIyWlLk6GJQsqaUBKTNV-1" source="_P4ZbYmgP_hX-oHSwhvf-0" target="_P4ZbYmgP_hX-oHSwhvf-5">
          <mxGeometry width="50" height="50" relative="1" as="geometry">
            <mxPoint x="404" y="294" as="sourcePoint" />
            <mxPoint x="303.1683168316831" y="370" as="targetPoint" />
          </mxGeometry>
        </mxCell>
        <mxCell id="_P4ZbYmgP_hX-oHSwhvf-11" value="" style="endArrow=classic;html=1;strokeWidth=2;dashed=1;startArrow=none;startFill=0;endFill=1;exitX=0.58;exitY=0.988;exitDx=0;exitDy=0;exitPerimeter=0;" edge="1" parent="WIyWlLk6GJQsqaUBKTNV-1" source="_P4ZbYmgP_hX-oHSwhvf-0">
          <mxGeometry width="50" height="50" relative="1" as="geometry">
            <mxPoint x="240" y="250" as="sourcePoint" />
            <mxPoint x="380" y="330" as="targetPoint" />
          </mxGeometry>
        </mxCell>
        <mxCell id="_P4ZbYmgP_hX-oHSwhvf-15" value="Sort&lt;br&gt;name, id" style="shape=sortShape;perimeter=rhombusPerimeter;whiteSpace=wrap;html=1;" vertex="1" parent="WIyWlLk6GJQsqaUBKTNV-1">
          <mxGeometry x="190" y="430" width="80" height="80" as="geometry" />
        </mxCell>
        <mxCell id="_P4ZbYmgP_hX-oHSwhvf-18" value="Sort&lt;br&gt;name, id" style="shape=sortShape;perimeter=rhombusPerimeter;whiteSpace=wrap;html=1;" vertex="1" parent="WIyWlLk6GJQsqaUBKTNV-1">
          <mxGeometry x="340" y="430" width="80" height="80" as="geometry" />
        </mxCell>
        <mxCell id="_P4ZbYmgP_hX-oHSwhvf-19" value="Sort&lt;br&gt;name, id" style="shape=sortShape;perimeter=rhombusPerimeter;whiteSpace=wrap;html=1;" vertex="1" parent="WIyWlLk6GJQsqaUBKTNV-1">
          <mxGeometry x="480" y="430" width="80" height="80" as="geometry" />
        </mxCell>
        <mxCell id="_P4ZbYmgP_hX-oHSwhvf-22" style="edgeStyle=none;rounded=0;orthogonalLoop=1;jettySize=auto;html=1;exitX=0.5;exitY=1;exitDx=0;exitDy=0;exitPerimeter=0;startArrow=none;startFill=0;endArrow=classic;endFill=1;entryX=0.5;entryY=0;entryDx=0;entryDy=0;" edge="1" parent="WIyWlLk6GJQsqaUBKTNV-1" source="_P4ZbYmgP_hX-oHSwhvf-4" target="_P4ZbYmgP_hX-oHSwhvf-18">
          <mxGeometry relative="1" as="geometry">
            <mxPoint x="240" y="410" as="sourcePoint" />
            <mxPoint x="240" y="440" as="targetPoint" />
          </mxGeometry>
        </mxCell>
        <mxCell id="_P4ZbYmgP_hX-oHSwhvf-23" style="edgeStyle=none;rounded=0;orthogonalLoop=1;jettySize=auto;html=1;exitX=0.5;exitY=1;exitDx=0;exitDy=0;exitPerimeter=0;startArrow=none;startFill=0;endArrow=classic;endFill=1;" edge="1" parent="WIyWlLk6GJQsqaUBKTNV-1">
          <mxGeometry relative="1" as="geometry">
            <mxPoint x="519.5" y="400" as="sourcePoint" />
            <mxPoint x="519.5" y="430" as="targetPoint" />
          </mxGeometry>
        </mxCell>
        <mxCell id="_P4ZbYmgP_hX-oHSwhvf-25" value="window func" style="rhombus;whiteSpace=wrap;html=1;" vertex="1" parent="WIyWlLk6GJQsqaUBKTNV-1">
          <mxGeometry x="190" y="540" width="80" height="80" as="geometry" />
        </mxCell>
        <mxCell id="_P4ZbYmgP_hX-oHSwhvf-26" value="window func" style="rhombus;whiteSpace=wrap;html=1;" vertex="1" parent="WIyWlLk6GJQsqaUBKTNV-1">
          <mxGeometry x="340" y="540" width="80" height="80" as="geometry" />
        </mxCell>
        <mxCell id="_P4ZbYmgP_hX-oHSwhvf-27" value="window func" style="rhombus;whiteSpace=wrap;html=1;" vertex="1" parent="WIyWlLk6GJQsqaUBKTNV-1">
          <mxGeometry x="480" y="540" width="80" height="80" as="geometry" />
        </mxCell>
        <mxCell id="_P4ZbYmgP_hX-oHSwhvf-32" value="" style="endArrow=classic;html=1;exitX=0.5;exitY=1;exitDx=0;exitDy=0;" edge="1" parent="WIyWlLk6GJQsqaUBKTNV-1" source="_P4ZbYmgP_hX-oHSwhvf-15" target="_P4ZbYmgP_hX-oHSwhvf-25">
          <mxGeometry width="50" height="50" relative="1" as="geometry">
            <mxPoint x="390" y="580" as="sourcePoint" />
            <mxPoint x="440" y="530" as="targetPoint" />
          </mxGeometry>
        </mxCell>
        <mxCell id="_P4ZbYmgP_hX-oHSwhvf-33" value="" style="endArrow=classic;html=1;exitX=0.5;exitY=1;exitDx=0;exitDy=0;" edge="1" parent="WIyWlLk6GJQsqaUBKTNV-1" source="_P4ZbYmgP_hX-oHSwhvf-18">
          <mxGeometry width="50" height="50" relative="1" as="geometry">
            <mxPoint x="240" y="520" as="sourcePoint" />
            <mxPoint x="380" y="540" as="targetPoint" />
          </mxGeometry>
        </mxCell>
        <mxCell id="_P4ZbYmgP_hX-oHSwhvf-34" value="" style="endArrow=classic;html=1;exitX=0.5;exitY=1;exitDx=0;exitDy=0;entryX=0.5;entryY=0;entryDx=0;entryDy=0;" edge="1" parent="WIyWlLk6GJQsqaUBKTNV-1" source="_P4ZbYmgP_hX-oHSwhvf-19" target="_P4ZbYmgP_hX-oHSwhvf-27">
          <mxGeometry width="50" height="50" relative="1" as="geometry">
            <mxPoint x="250" y="530" as="sourcePoint" />
            <mxPoint x="250" y="550" as="targetPoint" />
          </mxGeometry>
        </mxCell>
        <mxCell id="_P4ZbYmgP_hX-oHSwhvf-35" value="&lt;font style=&quot;font-size: 16px&quot;&gt;from entrance&lt;/font&gt;" style="rounded=0;whiteSpace=wrap;html=1;dashed=1;" vertex="1" parent="WIyWlLk6GJQsqaUBKTNV-1">
          <mxGeometry x="260" y="690" width="240" height="80" as="geometry" />
        </mxCell>
        <mxCell id="_P4ZbYmgP_hX-oHSwhvf-44" value="backend0" style="text;html=1;align=center;verticalAlign=middle;resizable=0;points=[];autosize=1;strokeColor=none;fillColor=none;" vertex="1" parent="WIyWlLk6GJQsqaUBKTNV-1">
          <mxGeometry x="200" y="150" width="70" height="20" as="geometry" />
        </mxCell>
        <mxCell id="_P4ZbYmgP_hX-oHSwhvf-45" value="backend1" style="text;html=1;align=center;verticalAlign=middle;resizable=0;points=[];autosize=1;strokeColor=none;fillColor=none;" vertex="1" parent="WIyWlLk6GJQsqaUBKTNV-1">
          <mxGeometry x="340" y="150" width="70" height="20" as="geometry" />
        </mxCell>
        <mxCell id="_P4ZbYmgP_hX-oHSwhvf-46" value="backend2" style="text;html=1;align=center;verticalAlign=middle;resizable=0;points=[];autosize=1;strokeColor=none;fillColor=none;" vertex="1" parent="WIyWlLk6GJQsqaUBKTNV-1">
          <mxGeometry x="490" y="150" width="70" height="20" as="geometry" />
        </mxCell>
      </root>
    </mxGraphModel>
  </diagram>
</mxfile>
